<?xml version="1.0" encoding="UTF-8" standalone="no"?>
<svg
   xmlns:dc="http://purl.org/dc/elements/1.1/"
   xmlns:cc="http://creativecommons.org/ns#"
   xmlns:rdf="http://www.w3.org/1999/02/22-rdf-syntax-ns#"
   xmlns:svg="http://www.w3.org/2000/svg"
   xmlns="http://www.w3.org/2000/svg"
   xmlns:sodipodi="http://sodipodi.sourceforge.net/DTD/sodipodi-0.dtd"
   xmlns:inkscape="http://www.inkscape.org/namespaces/inkscape"
   version="1.1"
   id="svg2"
   xml:space="preserve"
   width="793.70667"
   height="793.70667"
   viewBox="0 0 793.70667 793.70667"
   sodipodi:docname="vectorstock_21486822.eps"><metadata
     id="metadata8"><rdf:RDF><cc:Work
         rdf:about=""><dc:format>image/svg+xml</dc:format><dc:type
           rdf:resource="http://purl.org/dc/dcmitype/StillImage" /></cc:Work></rdf:RDF></metadata><defs
     id="defs6" /><sodipodi:namedview
     pagecolor="#ffffff"
     bordercolor="#666666"
     borderopacity="1"
     objecttolerance="10"
     gridtolerance="10"
     guidetolerance="10"
     inkscape:pageopacity="0"
     inkscape:pageshadow="2"
     inkscape:window-width="640"
     inkscape:window-height="480"
     id="namedview4" /><g
     id="g10"
     inkscape:groupmode="layer"
     inkscape:label="ink_ext_XXXXXX"
     transform="matrix(1.3333333,0,0,-1.3333333,0,793.70667)"><g
       id="g12"
       transform="scale(0.1)"><path
         d="M 0,5952.76 H 5952.75 V 0.0117188 H 0 V 5952.76 v 0"
         style="fill:#ffffff;fill-opacity:1;fill-rule:evenodd;stroke:none"
         id="path14" /><path
         d="m 2976.38,4724.1 c 986.43,0 1786.1,-799.67 1786.1,-1786.11 0,-719.44 -425.43,-1339.59 -1038.38,-1622.51 -227.41,-104.97 -479.46,118.21 -746.48,118.21 -248.72,0 -486.9,-230.86 -702.05,-139.06 -638.04,272.46 -1085.29,905.69 -1085.29,1643.36 0,986.44 799.66,1786.11 1786.1,1786.11 v 0"
         style="fill:#e41e27;fill-opacity:1;fill-rule:evenodd;stroke:none"
         id="path16" /><path
         d="m 2218.83,1361.5 c 0,0 -121.17,230.08 214.71,270.43 335.88,40.35 731.77,173.45 848.86,156.57 117.08,-16.88 347.46,-6.89 397.55,-61.97 50.08,-55.08 96.11,74.12 140.22,-85.14 44.09,-159.25 -6.03,-168.48 -6.37,-219.1 -0.33,-50.6 118.72,-27.9 -177.84,-69.66 -296.56,-41.75 -210.67,-73.42 -461.83,-51.77 -251.17,21.65 -297.38,-24.01 -490.79,-15.03 -193.39,8.97 -464.51,75.67 -464.51,75.67 v 0"
         style="fill:#141d20;fill-opacity:1;fill-rule:evenodd;stroke:none"
         id="path18" /><path
         d="m 2976.38,1433.71 c 1008.45,0 1825.97,-45.9 1825.97,-102.52 0,-56.62 -817.52,-102.52 -1825.97,-102.52 -1008.45,0 -1825.97,45.9 -1825.97,102.52 0,56.62 817.52,102.52 1825.97,102.52 v 0"
         style="fill:#141d20;fill-opacity:1;fill-rule:evenodd;stroke:none"
         id="path20" /><path
         d="m 3173.83,4039.12 c 63.67,-25.55 121.63,-63.29 171.48,-110.57 31.96,9.83 64.24,18.73 96.68,26.8 203.81,50.5 555.22,85.89 764.06,55.45 23.21,0.15 46.91,-0.19 69.85,3.34 102.85,15.9 217.63,-5.91 302.42,-67.88 203.89,-148.92 135.6,-352.85 -72.15,-450.13 -68.83,-32.21 -146,-52.77 -221.34,-37.21 -33.28,-27.07 -65.64,-55.31 -96.61,-85.02 -37.2,-35.7 -72.49,-73.41 -105.31,-113.15 105.55,-170.72 160.02,-363.15 160.02,-564.68 0,-55.35 -4.17,-110.58 -12.54,-165.23 21.06,-36.42 44.1,-72.57 63.6,-109.33 62.47,-117.92 110.04,-243.83 115.57,-378.44 5.49,-132.68 -31.65,-298.33 -97.17,-420.52 42.29,-30.18 73.7,-71.4 81.61,-125.57 37.18,-254.23 -441.54,-216.76 -591.4,-161.64 l -2.42,0.54 c -88.73,21.15 -250.72,137.25 -336.8,196.57 -115.91,-136.69 -309.91,-212.33 -485.75,-212.33 -141.69,0 -293.23,49.03 -406.71,137.07 -51.26,-53.37 -127.69,-72.04 -202.15,-72.04 -29.38,0 -58.67,3.91 -87.14,11.06 -38.84,-23.17 -88.32,-50.65 -129.61,-60.45 l -1.86,-0.42 c -149.91,-55.12 -628.58,-92.56 -591.41,161.64 7.92,54.17 39.34,95.39 81.62,125.57 -65.53,122.19 -102.66,287.84 -97.18,420.52 2.69,65.45 15.41,129.66 35.29,191.89 -13.22,34.64 -25.33,69.69 -36.19,105.12 -62.05,202.6 -83.59,422.57 -21.24,627.97 32.03,105.47 83.62,202.95 150.1,290.69 56.58,74.73 123.14,141.62 195.74,200.86 168.94,137.91 414.51,256.85 626.91,319.46 62.58,116.97 162.25,210.81 285.24,260.1 -20.9,57.2 -47.85,141.65 -40.84,180.22 13.4,73.63 177.16,81.09 239.62,83.13 59.73,-2.04 223.49,-9.5 236.9,-83.13 7,-38.57 -19.95,-123.07 -40.89,-180.26 v 0"
         style="fill:#141d20;fill-opacity:1;fill-rule:evenodd;stroke:none"
         id="path22" /><path
         d="m 4555.99,3915.71 c -77.16,56.36 -182.13,75.27 -274.29,61.02 -70.5,-10.9 -144.34,11.1 -181.77,-36.8 -23.39,-29.97 130.36,3.33 131.42,-39.96 0.92,-36.86 -52.96,-122.44 -70.19,-171.82 -44.03,-126.15 39.57,-199.02 96.45,-221.72 65.56,-26.14 142.83,-17.98 232.49,23.98 182.02,85.22 245.66,254 65.89,385.3 v 0"
         style="fill:#141d20;fill-opacity:1;fill-rule:evenodd;stroke:none"
         id="path24" /><path
         d="m 4511.33,3854.57 c 118.18,-86.31 94.62,-186.35 -53.31,-255.58 -147.94,-69.24 -221.18,-18.37 -279.12,89.06 -120.63,223.72 195.39,266.62 332.43,166.52 v 0"
         style="fill:#f0be66;fill-opacity:1;fill-rule:evenodd;stroke:none"
         id="path26" /><path
         d="m 2770.96,3419.69 c 17.12,49.01 40.72,95.19 70.14,137.94 136.66,198.7 383.43,304.77 610,360.96 187.06,46.38 680.23,106.64 860.83,25.62 12.97,-5.79 -84.86,-50.76 -75.73,-55.83 81.97,-45.62 135.33,-32.26 166.55,-182.57 11.98,-57.55 -33.4,-134.62 -64.01,-157.25 -61.86,-45.86 -121.03,-93.94 -176.72,-147.32 -160.97,-154.39 -279.12,-338.26 -336.55,-555.17 l -1.99,-7.58 -3.52,-7 c -35.18,-70.19 -35.48,-115.82 -93.28,-185.8 -89.43,-108.21 -196.63,-210.26 -305.72,-298.45 -161.17,-130.29 -485.75,-355.93 -701.71,-246.03 -353.78,180.09 -35.66,1068.48 51.71,1318.48 v 0"
         style="fill:#141d20;fill-opacity:1;fill-rule:evenodd;stroke:none"
         id="path28" /><path
         d="m 2842.42,3394.72 c 193.32,553.37 1284.42,549.57 1438.53,480.41 154.11,-69.15 146.98,-138.34 108.57,-190.91 -38.4,-52.58 -495.56,-283.4 -637.23,-818.76 -18.96,-37.82 -32.18,-108.88 -84,-171.54 -380.85,-460.98 -1500.04,-1228.91 -825.87,700.8 v 0"
         style="fill:#f0be66;fill-opacity:1;fill-rule:evenodd;stroke:none"
         id="path30" /><path
         d="m 3912.55,2176 c -6.84,47.26 -44.18,139.69 -142.98,194.83 -71.52,39.9 -148.92,51.47 -186.19,54.73 -46.5,4.16 -61.42,-49.88 -29.54,-80.79 17.63,-17.1 169.58,-13.48 358.71,-168.77 v 0"
         style="fill:#100f0d;fill-opacity:1;fill-rule:evenodd;stroke:none"
         id="path32" /><path
         d="m 4078.53,2702.31 c 5.37,0.04 11.24,-0.45 17.63,-1.51 69.5,-11.55 65.33,-71.02 62.42,-110.76 7.23,-30.93 83.02,-150.55 101.95,-186.24 59.69,-112.74 105.92,-233.46 111.21,-362.28 7.2,-174.59 -67.79,-462.39 -230.27,-554.5 -109.28,-61.97 -198.96,-146.12 -332.51,-114.32 -80.26,19.12 -261.24,148.59 -333.92,197.68 -74.87,50.61 -204.76,148.28 -284.25,182.39 -24.65,10.56 -44.71,28.5 -55.99,53.07 -49.44,107.65 119.51,244.54 190.03,304.73 61.82,52.77 125.72,101.49 189.43,151.8 159.32,125.79 319.95,276.1 472.05,412.54 l 72.41,65.18 19.81,-37.78 v 0"
         style="fill:#141d20;fill-opacity:1;fill-rule:evenodd;stroke:none"
         id="path34" /><path
         d="m 4036.91,2618.62 c 40.29,-76.81 52.06,75.07 46.49,-32.64 -3.44,-66.28 201.92,-285.98 212.71,-547.57 6.7,-163.19 -66.43,-414.35 -191.96,-485.52 -153.81,-87.18 -185.64,-128.44 -277.67,-106.52 -92.02,21.92 -500.74,330.88 -605.86,375.97 -105.12,45.09 245.38,305.45 340.54,380.6 95.17,75.13 475.75,415.68 475.75,415.68 v 0"
         style="fill:#f0be66;fill-opacity:1;fill-rule:evenodd;stroke:none"
         id="path36" /><path
         d="m 3925.81,1574.55 c 63.87,72.59 151.05,87.62 219.94,73.88 101.3,-20.17 197.72,-67.37 210.81,-156.94 32.06,-219.29 -511.45,-179.28 -607.22,-83.16 -25.89,25.96 -45.88,47.99 -41.12,85.09 1.67,13.14 91.05,-39.78 112.09,-45.31 37.33,-9.8 23.55,29.9 45.05,34.3 43.72,8.89 53.04,60.87 60.45,92.14 v 0"
         style="fill:#141d20;fill-opacity:1;fill-rule:evenodd;stroke:none"
         id="path38" /><path
         d="m 3966.36,1582.19 c 48.84,6.24 300.26,0.98 315.29,-101.68 15.03,-102.66 -413.3,-84.34 -478.67,-18.74 -65.38,65.61 101.14,112.47 163.38,120.42 v 0"
         style="fill:#f0be66;fill-opacity:1;fill-rule:evenodd;stroke:none"
         id="path40" /><path
         d="m 1874.24,2702.31 c -5.38,0.04 -11.25,-0.45 -17.64,-1.51 -69.51,-11.55 -65.34,-71.02 -62.43,-110.76 -7.23,-30.93 -83.01,-150.55 -101.94,-186.24 -59.7,-112.74 -105.92,-233.46 -111.22,-362.28 -7.19,-174.59 67.8,-462.39 230.27,-554.5 109.29,-61.97 198.97,-146.12 332.52,-114.32 80.25,19.12 261.23,148.59 333.92,197.68 74.87,50.61 204.76,148.28 284.25,182.39 24.64,10.56 44.7,28.5 55.98,53.07 49.44,107.65 -119.5,244.54 -190.03,304.73 -61.81,52.77 -125.71,101.49 -189.42,151.8 -159.33,125.79 -319.95,276.1 -472.05,412.54 l -72.42,65.18 -19.79,-37.78 v 0"
         style="fill:#141d20;fill-opacity:1;fill-rule:evenodd;stroke:none"
         id="path42" /><path
         d="m 1915.84,2618.62 c -40.28,-76.81 -52.05,75.07 -46.49,-32.64 3.45,-66.28 -201.91,-285.98 -212.7,-547.57 -6.7,-163.19 66.43,-414.35 191.96,-485.52 153.8,-87.18 185.64,-128.44 277.66,-106.52 92.03,21.92 500.75,330.88 605.87,375.97 105.12,45.09 -245.38,305.45 -340.54,380.6 -95.17,75.13 -475.76,415.68 -475.76,415.68 v 0"
         style="fill:#f0be66;fill-opacity:1;fill-rule:evenodd;stroke:none"
         id="path44" /><path
         d="m 2026.94,1574.55 c -63.86,72.59 -151.04,87.62 -219.94,73.88 -101.3,-20.17 -197.71,-67.37 -210.81,-156.94 -32.06,-219.29 511.46,-179.28 607.23,-83.16 25.89,25.96 45.88,47.99 41.11,85.09 -1.66,13.14 -91.04,-39.78 -112.08,-45.31 -37.33,-9.8 -23.55,29.9 -45.05,34.3 -43.72,8.89 -53.04,60.87 -60.46,92.14 v 0"
         style="fill:#141d20;fill-opacity:1;fill-rule:evenodd;stroke:none"
         id="path46" /><path
         d="m 1986.4,1582.19 c -48.83,6.24 -300.27,0.98 -315.3,-101.68 -15.02,-102.66 413.3,-84.34 478.68,-18.74 65.38,65.61 -101.15,112.47 -163.38,120.42 v 0"
         style="fill:#f0be66;fill-opacity:1;fill-rule:evenodd;stroke:none"
         id="path48" /><path
         d="m 2977.63,1357.97 c -237.46,0 -515.77,147.52 -549.39,403.92 -11.96,91.15 76.09,268.35 177.54,268.35 116.03,1.51 248.33,19.57 366.06,28.61 l 5.79,0.46 5.79,-0.46 c 117.73,-9.04 250.04,-27.1 365.87,-28.61 101.64,0 189.68,-177.2 177.72,-268.35 -33.61,-256.4 -311.92,-403.92 -549.38,-403.92 v 0"
         style="fill:#141d20;fill-opacity:1;fill-rule:evenodd;stroke:none"
         id="path50" /><path
         d="m 2977.63,1433.69 c -189.28,0 -445.1,115 -474.32,338.03 -9.77,74.51 72.6,182.81 102.66,182.81 30.06,0 371.66,28.85 371.66,28.85 0,0 341.6,-28.85 371.66,-28.85 30.06,0 112.43,-108.3 102.66,-182.81 -29.23,-223.03 -285.05,-338.03 -474.32,-338.03 v 0"
         style="fill:#ffffff;fill-opacity:1;fill-rule:evenodd;stroke:none"
         id="path52" /><path
         d="m 2976.38,3812.29 c 313.59,0 515.5,-332.21 812.06,-377.56 107.65,-16.47 179.47,-70.68 235.76,-153.08 113.38,-166.03 180.87,-364.51 180.87,-585.58 0,-658.64 -598.53,-1116.23 -1228.69,-1116.23 -630.17,0 -1228.69,457.59 -1228.69,1116.23 0,658.63 598.52,1116.22 1228.69,1116.22 v 0"
         style="fill:#141d20;fill-opacity:1;fill-rule:evenodd;stroke:none"
         id="path54" /><path
         d="m 2976.38,3736.58 c 636.79,0 1152.99,-465.88 1152.99,-1040.51 0,-574.64 -516.2,-1040.52 -1152.99,-1040.52 -636.8,0 -1152.98,465.88 -1152.98,1040.52 0,574.63 516.18,1040.51 1152.98,1040.51 v 0"
         style="fill:#f0be66;fill-opacity:1;fill-rule:evenodd;stroke:none"
         id="path56" /><path
         d="m 2446.6,1708.13 c 0,-170.8 -153.73,-193.48 -291.71,-164.17 -107.92,22.86 -239.96,184.46 -302.23,268.92 -117.69,159.7 -216.08,348.53 -274.18,538.29 -59.82,195.37 -81.32,407.89 -21.2,605.91 30.74,101.26 80.21,194.53 144.03,278.8 54.78,72.34 119.25,137.03 189.51,194.38 218.42,178.3 647.65,373.21 936.52,361.4 l 28.13,-1.13 20.44,-19.16 c 83.17,-77.53 247.68,-223.04 305.04,-310.97 96.26,-147.6 -154.75,-386.09 -245.42,-479.52 -231.78,-238.89 -525.46,29.91 -590.11,-353.82 -32.41,-192.34 -17.3,-390.55 21.42,-580.8 14.27,-70.04 31.95,-138.82 50.84,-207.76 9.77,-35.53 28.92,-94.33 28.92,-130.37 v 0"
         style="fill:#141d20;fill-opacity:1;fill-rule:evenodd;stroke:none"
         id="path58" /><path
         d="M 2824.24,3716.03 C 2578.86,3726.06 1800,3495.98 1629.73,2935.08 1459.46,2374.19 2005.37,1653.05 2170.6,1618 c 165.24,-35.05 200.29,25.02 200.29,90.13 0,65.12 -175.23,485.79 -100.13,931.5 75.11,445.7 409.56,186.93 610.45,393.99 200.9,207.06 276.8,323.35 236.33,385.4 -40.47,62.04 -293.3,297.01 -293.3,297.01 v 0"
         style="fill:#f0be66;fill-opacity:1;fill-rule:evenodd;stroke:none"
         id="path60" /><path
         d="m 3825.38,2767.27 c 22.83,-21.5 44.52,-35.85 68.9,-68.36 8.41,-11.21 15.56,-23.32 21.32,-36.08 79.04,-175.23 -94.34,-316.99 -255.56,-342.05 -137.49,-21.39 -261.77,-11.58 -391.95,37.47 -75.52,28.47 -156.61,77.3 -232.62,96.57 -19.42,4.92 -39.02,7.76 -59.09,7.76 -210.02,0 -466.75,-200.37 -691.61,-140.14 -133.13,35.66 -295.38,142.91 -259.95,303.6 5.83,26.5 17.38,51.14 33.66,72.87 24.37,32.51 46.07,46.86 68.89,68.36 -19.53,42.97 -68.59,97.82 -102.58,128.98 l 126.35,18.36 c 89.95,70.63 338.05,148.54 436.51,187.49 160.47,83.32 180.64,179.66 342.39,260.55 l 33.85,16.92 33.83,-16.92 c 161.76,-80.89 191.89,-199.76 352.36,-283.07 98.46,-38.95 282.1,-72.42 372.04,-143.06 l 206.42,-39.79 c -33.99,-31.15 -83.62,-86.49 -103.16,-129.46 v 0"
         style="fill:#141d20;fill-opacity:1;fill-rule:evenodd;stroke:none"
         id="path62" /><path
         d="m 2976.38,2538.29 c -196.89,0 -490.34,-191.4 -672.04,-142.71 -188.51,50.46 -245.37,177.77 -185.3,257.9 60.08,80.14 111.45,66.32 78.89,141.47 -32.55,75.13 -173.14,101.3 -173.14,101.3 0,0 392.32,321.72 463.64,346.97 59.02,30.66 487.95,247.04 487.95,247.04 0,0 428.93,-216.38 487.95,-247.04 71.31,-25.25 464.21,-346.49 464.21,-346.49 0,0 -141.16,-26.65 -173.72,-101.78 -32.55,-75.15 18.82,-61.33 78.89,-141.47 60.08,-80.13 7.54,-227.93 -185.29,-257.9 -356.03,-55.42 -475.16,142.71 -672.04,142.71 v 0"
         style="fill:#f0be66;fill-opacity:1;fill-rule:evenodd;stroke:none"
         id="path64" /><path
         d="m 2694.55,3389.64 c -16.24,-75.67 -106.45,-111.86 -174.59,-120.56 -179.96,-23.02 -298.79,238.52 -137.15,368.25 150.67,120.87 270.63,-87.75 309.62,-208.16 l 6.44,-19.31 -4.32,-20.22 v 0"
         style="fill:#141d20;fill-opacity:1;fill-rule:evenodd;stroke:none"
         id="path66" /><path
         d="m 2620.5,3405.5 c 0,0 -82.63,259.16 -190.29,172.77 -107.66,-86.38 -17.52,-246.58 80.14,-234.09 97.66,12.49 110.15,61.32 110.15,61.32 v 0"
         style="fill:#f0be66;fill-opacity:1;fill-rule:evenodd;stroke:none"
         id="path68" /><path
         d="m 2405.96,3500.43 c 33.79,2.23 103.4,-10.02 156.23,-70.4 38.23,-43.71 57.68,-95.67 65.44,-121.03 9.76,-31.65 -25.53,-49.97 -51.66,-32.43 -14.47,9.71 -34.39,115.62 -170.01,223.86 v 0"
         style="fill:#141d20;fill-opacity:1;fill-rule:evenodd;stroke:none"
         id="path70" /><path
         d="m 3258.17,3389.64 c 16.24,-75.67 106.45,-111.86 174.58,-120.56 179.96,-23.02 298.79,238.52 137.15,368.25 -150.66,120.87 -270.62,-87.75 -309.61,-208.16 l -6.43,-19.31 4.31,-20.22 v 0"
         style="fill:#141d20;fill-opacity:1;fill-rule:evenodd;stroke:none"
         id="path72" /><path
         d="m 3332.22,3405.5 c 0,0 82.63,259.16 190.29,172.77 107.66,-86.38 17.53,-246.58 -80.14,-234.09 -97.66,12.49 -110.15,61.32 -110.15,61.32 v 0"
         style="fill:#f0be66;fill-opacity:1;fill-rule:evenodd;stroke:none"
         id="path74" /><path
         d="m 3546.76,3500.43 c -33.79,2.23 -103.4,-10.02 -156.23,-70.4 -38.23,-43.71 -57.68,-95.67 -65.44,-121.03 -9.76,-31.65 25.53,-49.97 51.67,-32.43 14.46,9.71 34.38,115.62 170,223.86 v 0"
         style="fill:#141d20;fill-opacity:1;fill-rule:evenodd;stroke:none"
         id="path76" /><path
         d="m 2976.38,4039.08 c 297.61,0 517.02,-259 517.02,-548.82 0,-261.16 -250.86,-548.82 -517.02,-548.82 -266.16,0 -517.02,287.66 -517.02,548.82 0,289.82 219.4,548.82 517.02,548.82 v 0"
         style="fill:#141d20;fill-opacity:1;fill-rule:evenodd;stroke:none"
         id="path78" /><path
         d="m 2976.38,3963.37 c 243.72,0 441.3,-211.82 441.3,-473.11 0,-261.28 -257.41,-473.11 -441.3,-473.11 -183.9,0 -441.3,211.83 -441.3,473.11 0,261.29 197.58,473.11 441.3,473.11 v 0"
         style="fill:#f0be66;fill-opacity:1;fill-rule:evenodd;stroke:none"
         id="path80" /><path
         d="m 3080.86,3323.17 c 1.89,33.8 22.52,101.42 88.88,146.5 48.04,32.63 101.98,45.61 128.1,50.23 32.59,5.83 46.49,-31.42 25.89,-55.23 -11.39,-13.17 -118.94,-20.06 -242.87,-141.5 v 0"
         style="fill:#141d20;fill-opacity:1;fill-rule:evenodd;stroke:none"
         id="path82" /><path
         d="m 2871.86,3323.17 c -1.89,33.8 -22.52,101.42 -88.88,146.5 -48.04,32.63 -101.98,45.61 -128.1,50.23 -32.59,5.83 -46.49,-31.42 -25.9,-55.23 11.4,-13.17 118.94,-20.06 242.88,-141.5 v 0"
         style="fill:#141d20;fill-opacity:1;fill-rule:evenodd;stroke:none"
         id="path84" /><path
         d="m 2936.06,3706.53 c -37.81,-0.76 -91.15,0.15 -109.06,10.25 -28.81,16.28 -78.88,32.56 -78.88,32.56 0,0 -177.32,35.7 -211.46,-218.76 -34.15,-254.46 -17.68,166.18 -17.68,166.18 l 217.82,260.52 c 0,0 106.41,18.78 125.18,15.03 18.78,-3.75 116.25,10.48 114.4,-8.94 v -29.15 h 0.08 v 29.15 c -1.86,19.42 95.61,5.19 114.39,8.94 18.78,3.75 125.19,-15.03 125.19,-15.03 l 217.82,-260.52 c 0,0 16.46,-420.64 -17.69,-166.18 -34.14,254.46 -211.45,218.76 -211.45,218.76 0,0 -50.08,-16.28 -78.89,-32.56 -17.79,-10.06 -70.61,-11.01 -108.38,-10.29 h -81.39 v 0.04 0"
         style="fill:#141d20;fill-opacity:1;fill-rule:evenodd;stroke:none"
         id="path86" /><path
         d="m 2976.46,4264.69 c 0,0 -192.62,-5.93 -201.03,-52.09 -8.41,-46.15 65.7,-237.47 78.29,-252.15 12.59,-14.69 122.74,-68.65 122.74,-68.65 0,0 110.13,53.96 122.73,68.65 12.59,14.68 86.69,206 78.29,252.15 -8.41,46.16 -201.02,52.09 -201.02,52.09 v 0"
         style="fill:#141d20;fill-opacity:1;fill-rule:evenodd;stroke:none"
         id="path88" /><path
         d="m 2386.34,2551.5 c 64.65,0 117.05,-22.56 117.05,-50.39 0,-27.83 -52.4,-50.39 -117.05,-50.39 -64.65,0 -117.05,22.56 -117.05,50.39 0,27.83 52.4,50.39 117.05,50.39 v 0"
         style="fill:#141d20;fill-opacity:1;fill-rule:evenodd;stroke:none"
         id="path90" /><path
         d="m 3566.99,2551.5 c 64.65,0 117.05,-22.56 117.05,-50.39 0,-27.83 -52.4,-50.39 -117.05,-50.39 -64.64,0 -117.05,22.56 -117.05,50.39 0,27.83 52.41,50.39 117.05,50.39 v 0"
         style="fill:#141d20;fill-opacity:1;fill-rule:evenodd;stroke:none"
         id="path92" /><path
         d="m 2977.63,2033.76 c 64.65,0 117.05,-22.56 117.05,-50.38 0,-27.84 -52.4,-50.4 -117.05,-50.4 -64.64,0 -117.05,22.56 -117.05,50.4 0,27.82 52.41,50.38 117.05,50.38 v 0"
         style="fill:#141d20;fill-opacity:1;fill-rule:evenodd;stroke:none"
         id="path94" /><path
         d="m 2368.77,1423.01 c -168.64,0 -338.42,145.1 -342.93,285.35 -1.21,38.08 63.64,-115.53 90.06,-81.16 22.53,29.22 29.45,130.11 44.67,180.15 38.84,127.83 149.34,137.37 208.65,122.16 68.37,-17.57 125.95,-69.73 173.61,-156.5 96.72,-176.17 48.57,-350 -174.06,-350 v 0"
         style="fill:#141d20;fill-opacity:1;fill-rule:evenodd;stroke:none"
         id="path96" /><path
         d="m 2368.77,1498.72 c 146.35,0 186.32,94.67 107.7,237.84 -78.63,143.17 -167.77,145.29 -277.93,92.71 -229.37,-109.52 0.53,-330.55 170.23,-330.55 v 0"
         style="fill:#f0be66;fill-opacity:1;fill-rule:evenodd;stroke:none"
         id="path98" /></g></g></svg>
